<svg width="185" height="125" viewBox="0 0 185 125" fill="none" xmlns="http://www.w3.org/2000/svg">
<path d="M172.249 32.2194C173.821 36.3702 173.18 41.1925 170.567 46.4064C167.954 51.6208 163.391 57.1783 157.215 62.7444C144.864 73.8744 126.144 84.9667 103.977 93.361C81.8114 101.755 60.4394 105.846 43.8146 105.689C35.5004 105.611 28.4007 104.47 22.9892 102.295C17.5783 100.119 13.9038 96.9313 12.3319 92.7804C10.76 88.6296 11.4009 83.8073 14.0135 78.5934C16.6263 73.379 21.1894 67.8215 27.3659 62.2554C39.7164 51.1254 58.437 40.0331 80.603 31.6388C102.769 23.2444 124.141 19.1534 140.766 19.3103C149.08 19.3888 156.18 20.5295 161.591 22.7052C167.002 24.8805 170.677 28.0685 172.249 32.2194Z" stroke="#101110"/>
<path d="M177.79 62.4999C177.79 66.9384 175.483 71.2211 171.193 75.1718C166.903 79.1229 160.667 82.7042 152.92 85.7221C137.428 91.7566 115.992 95.4999 92.29 95.4999C68.5878 95.4999 47.1521 91.7566 31.6603 85.7221C23.9129 82.7042 17.6773 79.1229 13.3871 75.1718C9.09731 71.2211 6.79004 66.9384 6.79004 62.4999C6.79004 58.0614 9.09731 53.7787 13.3871 49.828C17.6773 45.8768 23.9129 42.2956 31.6603 39.2777C47.1521 33.2431 68.5878 29.4999 92.29 29.4999C115.992 29.4999 137.428 33.2431 152.92 39.2777C160.667 42.2956 166.903 45.8768 171.193 49.828C175.483 53.7787 177.79 58.0614 177.79 62.4999Z" stroke="#101110"/>
</svg>
